<svg xmlns="http://www.w3.org/2000/svg" width="171" height="44" viewBox="0 0 171 44"
                    fill="none">
                    <g clip-path="url(#clip0_13_61)">
                        <mask id="mask0_13_61" style="mask-type:luminance" maskUnits="userSpaceOnUse" x="0" y="0"
                            width="171" height="44">
                            <path d="M170.856 0H0V44H170.856V0Z" fill="white"></path>
                        </mask>
                        <g mask="url(#mask0_13_61)">
                            <path
                                d="M56.0288 29.2327C54.692 29.2327 53.4643 28.9178 52.3458 28.2881C51.2272 27.6584 50.3405 26.7892 49.6858 25.6804C49.031 24.5579 48.7036 23.2917 48.7036 21.8817C48.7036 20.4855 49.031 19.2329 49.6858 18.1241C50.3405 17.0016 51.2272 16.1256 52.3458 15.4959C53.4643 14.8662 54.692 14.5513 56.0288 14.5513C57.3793 14.5513 58.607 14.8662 59.7119 15.4959C60.8305 16.1256 61.7103 17.0016 62.3515 18.1241C63.0062 19.2329 63.3336 20.4855 63.3336 21.8817C63.3336 23.2917 63.0062 24.5579 62.3515 25.6804C61.7103 26.7892 60.8305 27.6584 59.7119 28.2881C58.5934 28.9178 57.3657 29.2327 56.0288 29.2327ZM56.0288 26.666C56.8882 26.666 57.6453 26.4744 58.3001 26.0911C58.9548 25.6941 59.4664 25.1328 59.8347 24.4073C60.203 23.6818 60.3872 22.84 60.3872 21.8817C60.3872 20.9235 60.203 20.0885 59.8347 19.3767C59.4664 18.6512 58.9548 18.0968 58.3001 17.7135C57.6453 17.3302 56.8882 17.1385 56.0288 17.1385C55.1695 17.1385 54.4056 17.3302 53.7372 17.7135C53.0824 18.0968 52.5708 18.6512 52.2025 19.3767C51.8342 20.0885 51.6501 20.9235 51.6501 21.8817C51.6501 22.84 51.8342 23.6818 52.2025 24.4073C52.5708 25.1328 53.0824 25.6941 53.7372 26.0911C54.4056 26.4744 55.1695 26.666 56.0288 26.666Z"
                                fill="#353840"></path>
                            <path
                                d="M67.5106 19.3561C67.8789 18.8359 68.3836 18.4047 69.0248 18.0625C69.6795 17.7066 70.423 17.5286 71.2551 17.5286C72.2236 17.5286 73.0966 17.7682 73.8742 18.2473C74.6653 18.7264 75.286 19.4108 75.7361 20.3006C76.1999 21.1767 76.4318 22.1965 76.4318 23.3601C76.4318 24.5236 76.1999 25.5572 75.7361 26.4606C75.286 27.3504 74.6653 28.0417 73.8742 28.5345C73.0966 29.0273 72.2236 29.2737 71.2551 29.2737C70.423 29.2737 69.6864 29.1026 69.0452 28.7604C68.4177 28.4181 67.9062 27.9869 67.5106 27.4668V34.5097H64.646V17.7134H67.5106V19.3561ZM73.5058 23.3601C73.5058 22.6756 73.3626 22.087 73.0762 21.5942C72.8033 21.0877 72.435 20.7044 71.9712 20.4444C71.5211 20.1843 71.03 20.0542 70.498 20.0542C69.9796 20.0542 69.4886 20.1911 69.0248 20.4649C68.5746 20.725 68.2063 21.1083 67.9198 21.6148C67.647 22.1212 67.5106 22.7167 67.5106 23.4012C67.5106 24.0856 67.647 24.6811 67.9198 25.1876C68.2063 25.694 68.5746 26.0842 69.0248 26.358C69.4886 26.618 69.9796 26.7481 70.498 26.7481C71.03 26.7481 71.5211 26.6112 71.9712 26.3374C72.435 26.0636 72.8033 25.6735 73.0762 25.167C73.3626 24.6605 73.5058 24.0582 73.5058 23.3601Z"
                                fill="#353840"></path>
                            <path
                                d="M88.8471 23.1548C88.8471 23.5654 88.8198 23.935 88.7652 24.2636H80.4783C80.5465 25.0849 80.833 25.7283 81.3377 26.1937C81.8424 26.6591 82.4631 26.8918 83.1997 26.8918C84.2637 26.8918 85.0208 26.4332 85.4709 25.5161H88.5606C88.2332 26.6112 87.6057 27.5147 86.6781 28.2265C85.7506 28.9246 84.6115 29.2737 83.2611 29.2737C82.1698 29.2737 81.1876 29.0341 80.3146 28.555C79.4552 28.0622 78.78 27.3709 78.2889 26.4812C77.8115 25.5914 77.5728 24.5647 77.5728 23.4012C77.5728 22.2239 77.8115 21.1904 78.2889 20.3006C78.7663 19.4108 79.4348 18.7264 80.2941 18.2473C81.1535 17.7682 82.1425 17.5286 83.2611 17.5286C84.3387 17.5286 85.3004 17.7613 86.1461 18.2268C87.0055 18.6922 87.6671 19.3561 88.1309 20.2185C88.6084 21.0672 88.8471 22.046 88.8471 23.1548ZM85.8801 22.3334C85.8665 21.5942 85.6005 21.0056 85.0821 20.5676C84.5638 20.1158 83.9295 19.89 83.1792 19.89C82.4699 19.89 81.8697 20.109 81.3786 20.547C80.9012 20.9714 80.6079 21.5668 80.4988 22.3334H85.8801Z"
                                fill="#353840"></path>
                            <path
                                d="M96.6057 17.5492C97.9564 17.5492 99.0477 17.9804 99.8798 18.8428C100.712 19.6915 101.128 20.8824 101.128 22.4156V29.0889H98.2633V22.8057C98.2633 21.9023 98.038 21.211 97.5878 20.7319C97.1377 20.2391 96.5241 19.9927 95.7463 19.9927C94.9553 19.9927 94.3279 20.2391 93.8641 20.7319C93.4139 21.211 93.1886 21.9023 93.1886 22.8057V29.0889H90.3242V17.7135H93.1886V19.1303C93.5708 18.6375 94.055 18.2542 94.6416 17.9804C95.2418 17.6929 95.8963 17.5492 96.6057 17.5492Z"
                                fill="#353840"></path>
                            <path
                                d="M107.76 29.2327C106.764 29.2327 105.864 29.0616 105.059 28.7193C104.268 28.3771 103.64 27.8843 103.177 27.2409C102.713 26.5976 102.474 25.8378 102.46 24.9617H105.53C105.571 25.5504 105.775 26.0158 106.144 26.358C106.525 26.7002 107.044 26.8713 107.699 26.8713C108.367 26.8713 108.892 26.7139 109.274 26.3991C109.656 26.0705 109.847 25.6462 109.847 25.126C109.847 24.7016 109.717 24.3526 109.458 24.0788C109.199 23.805 108.872 23.5928 108.476 23.4423C108.094 23.278 107.562 23.1 106.88 22.9084C105.953 22.6346 105.195 22.3677 104.609 22.1076C104.036 21.8338 103.538 21.43 103.115 20.8961C102.706 20.3486 102.501 19.6231 102.501 18.7196C102.501 17.8709 102.713 17.1317 103.136 16.502C103.559 15.8723 104.152 15.3932 104.916 15.0647C105.68 14.7224 106.553 14.5513 107.535 14.5513C109.008 14.5513 110.202 14.9141 111.116 15.6396C112.043 16.3514 112.555 17.3507 112.65 18.6375H109.499C109.472 18.1447 109.26 17.7408 108.865 17.426C108.483 17.0975 107.971 16.9332 107.33 16.9332C106.771 16.9332 106.321 17.0769 105.98 17.3644C105.652 17.6519 105.489 18.0694 105.489 18.6169C105.489 19.0002 105.612 19.3219 105.857 19.582C106.116 19.8284 106.43 20.0337 106.798 20.198C107.18 20.3486 107.712 20.5265 108.394 20.7319C109.322 21.0056 110.079 21.2794 110.666 21.5532C111.252 21.827 111.757 22.2376 112.18 22.7852C112.603 23.3328 112.814 24.0514 112.814 24.9412C112.814 25.7078 112.616 26.4196 112.221 27.0767C111.825 27.7337 111.245 28.2608 110.481 28.6577C109.717 29.041 108.81 29.2327 107.76 29.2327Z"
                                fill="#353840"></path>
                            <path
                                d="M125.016 23.1548C125.016 23.5654 124.989 23.935 124.935 24.2636H116.648C116.716 25.0849 117.002 25.7283 117.507 26.1937C118.012 26.6591 118.632 26.8918 119.369 26.8918C120.433 26.8918 121.19 26.4332 121.64 25.5161H124.73C124.403 26.6112 123.775 27.5147 122.848 28.2265C121.92 28.9246 120.781 29.2737 119.43 29.2737C118.339 29.2737 117.357 29.0341 116.484 28.555C115.625 28.0622 114.949 27.3709 114.458 26.4812C113.981 25.5914 113.742 24.5647 113.742 23.4012C113.742 22.2239 113.981 21.1904 114.458 20.3006C114.936 19.4108 115.604 18.7264 116.464 18.2473C117.323 17.7682 118.312 17.5286 119.43 17.5286C120.508 17.5286 121.47 17.7613 122.316 18.2268C123.175 18.6922 123.837 19.3561 124.3 20.2185C124.778 21.0672 125.016 22.046 125.016 23.1548ZM122.05 22.3334C122.036 21.5942 121.77 21.0056 121.252 20.5676C120.733 20.1158 120.099 19.89 119.349 19.89C118.639 19.89 118.039 20.109 117.548 20.547C117.071 20.9714 116.777 21.5668 116.668 22.3334H122.05Z"
                                fill="#353840"></path>
                            <path
                                d="M125.961 23.3601C125.961 22.2102 126.187 21.1904 126.637 20.3006C127.1 19.4108 127.721 18.7264 128.499 18.2473C129.29 17.7682 130.17 17.5286 131.138 17.5286C131.984 17.5286 132.721 17.6997 133.348 18.042C133.989 18.3842 134.501 18.8154 134.883 19.3356V17.7134H137.768V29.0889H134.883V27.4257C134.514 27.9596 134.003 28.4044 133.348 28.7604C132.707 29.1026 131.963 29.2737 131.118 29.2737C130.163 29.2737 129.29 29.0273 128.499 28.5345C127.721 28.0417 127.1 27.3504 126.637 26.4606C126.187 25.5572 125.961 24.5236 125.961 23.3601ZM134.883 23.4012C134.883 22.703 134.746 22.1076 134.473 21.6148C134.201 21.1083 133.832 20.725 133.369 20.4649C132.905 20.1911 132.407 20.0542 131.875 20.0542C131.343 20.0542 130.852 20.1843 130.402 20.4444C129.951 20.7044 129.583 21.0877 129.297 21.5942C129.024 22.087 128.887 22.6756 128.887 23.3601C128.887 24.0445 129.024 24.6468 129.297 25.167C129.583 25.6735 129.951 26.0636 130.402 26.3374C130.865 26.6112 131.356 26.7481 131.875 26.7481C132.407 26.7481 132.905 26.618 133.369 26.358C133.832 26.0842 134.201 25.7009 134.473 25.2081C134.746 24.7016 134.883 24.0993 134.883 23.4012Z"
                                fill="#353840"></path>
                            <path
                                d="M151.906 18.966C151.906 20.1569 151.496 21.1493 150.678 21.9433C149.873 22.7236 148.639 23.1137 146.974 23.1137H144.233V29.0889H142.371V14.7772H146.974C148.584 14.7772 149.805 15.1673 150.637 15.9476C151.483 16.7278 151.906 17.734 151.906 18.966ZM146.974 21.5737C148.011 21.5737 148.775 21.3478 149.266 20.8961C149.757 20.4444 150.003 19.801 150.003 18.966C150.003 17.2001 148.993 16.3172 146.974 16.3172H144.233V21.5737H146.974Z"
                                fill="url(#paint0_linear_13_61)"></path>
                            <path
                                d="M155.263 19.6641C155.591 19.0207 156.055 18.5211 156.655 18.1652C157.269 17.8092 158.012 17.6313 158.885 17.6313V19.5614H158.394C156.307 19.5614 155.263 20.6976 155.263 22.97V29.0889H153.401V17.8366H155.263V19.6641Z"
                                fill="url(#paint1_linear_13_61)"></path>
                            <path
                                d="M165.107 29.2737C164.056 29.2737 163.101 29.0342 162.242 28.5551C161.396 28.0759 160.728 27.3983 160.237 26.5223C159.759 25.6325 159.521 24.6058 159.521 23.4423C159.521 22.2924 159.766 21.2794 160.257 20.4033C160.762 19.5135 161.444 18.8359 162.303 18.3705C163.163 17.8914 164.124 17.6519 165.188 17.6519C166.252 17.6519 167.214 17.8914 168.073 18.3705C168.933 18.8359 169.608 19.5067 170.099 20.3828C170.604 21.2589 170.856 22.2787 170.856 23.4423C170.856 24.6058 170.597 25.6325 170.079 26.5223C169.574 27.3983 168.885 28.0759 168.012 28.5551C167.139 29.0342 166.171 29.2737 165.107 29.2737ZM165.107 27.6311C165.775 27.6311 166.402 27.4736 166.989 27.1588C167.576 26.8439 168.046 26.3717 168.401 25.742C168.769 25.1123 168.953 24.3457 168.953 23.4423C168.953 22.5388 168.776 21.7722 168.421 21.1425C168.067 20.5128 167.603 20.0474 167.03 19.7463C166.457 19.4314 165.836 19.274 165.168 19.274C164.486 19.274 163.858 19.4314 163.285 19.7463C162.726 20.0474 162.276 20.5128 161.935 21.1425C161.594 21.7722 161.423 22.5388 161.423 23.4423C161.423 24.3594 161.587 25.1328 161.915 25.7625C162.256 26.3922 162.706 26.8645 163.265 27.1793C163.824 27.4805 164.438 27.6311 165.107 27.6311Z"
                                fill="url(#paint2_linear_13_61)"></path>
                            <mask id="mask1_13_61" style="mask-type:luminance" maskUnits="userSpaceOnUse" x="0" y="3"
                                width="43" height="38">
                                <path d="M42.8781 3.42224H0.730957V40.8222H42.8781V3.42224Z" fill="white"></path>
                            </mask>
                            <g mask="url(#mask1_13_61)">
                                <mask id="mask2_13_61" style="mask-type:luminance" maskUnits="userSpaceOnUse" x="0"
                                    y="3" width="43" height="38">
                                    <path
                                        d="M42.4938 20.6827L33.3913 4.86177C32.8788 3.97099 31.9318 3.42224 30.907 3.42224H12.7023C11.6774 3.42224 10.7302 3.97099 10.2178 4.86177L1.11537 20.6827C0.602821 21.5735 0.602821 22.671 1.11537 23.5618L10.2176 39.3827C10.7302 40.2735 11.6772 40.8222 12.7022 40.8222H30.9067C31.9318 40.8222 32.8788 40.2735 33.3913 39.3827L42.4936 23.5618C43.0061 22.671 43.0063 21.5735 42.4938 20.6827ZM16.0319 11.9448C17.2943 13.5545 18.0474 15.5852 18.0474 17.7926C18.0474 19.7041 17.4812 21.4822 16.51 22.9703H9.68085L16.0319 11.9448ZM36.8584 25.4093V25.4137C36.8584 25.5049 36.8089 25.5855 36.7241 25.621C36.2613 25.82 34.7347 26.5288 34.0982 27.4184C32.4601 29.7074 31.208 33.3085 28.4107 33.3085H16.7376C12.6048 33.3085 9.14479 30.0161 9.1491 25.6315C9.1491 25.5217 9.24018 25.432 9.34947 25.432H14.8823C15.0715 25.432 15.2249 25.586 15.2249 25.776V26.8476C15.2249 27.4174 15.6852 27.8792 16.2528 27.8792L20.4494 27.8779V25.4284H17.5815C19.229 23.3314 20.2127 20.685 20.2127 17.8076C20.2127 14.593 18.9855 11.6663 16.9761 9.47241C18.1915 9.61363 19.3535 9.85648 20.4494 10.1808V9.49947C20.4494 8.79166 21.0212 8.21802 21.7266 8.21802C22.4319 8.21802 23.0037 8.79181 23.0037 9.49947V11.1433C26.9228 12.9781 29.4864 16.0225 29.4864 19.4685C29.4864 21.4889 28.6048 23.3713 27.0855 24.9532C26.7932 25.2575 26.3881 25.4286 25.967 25.4286H23.0037V27.8777L26.7197 27.8767C27.5223 27.8767 28.9597 26.3524 29.6423 25.4325C29.6423 25.4325 29.6712 25.3868 29.7497 25.3641C29.8281 25.3413 36.5753 23.7863 36.5753 23.7863C36.7156 23.7469 36.8584 23.8547 36.8584 24.002V25.4098V25.4093Z"
                                        fill="white"></path>
                                </mask>
                                <g mask="url(#mask2_13_61)">
                                    <path
                                        d="M17.1312 -8.5274L-6.98242 33.3853L0.652794 37.809L24.7664 -4.10374L17.1312 -8.5274Z"
                                        fill="url(#paint3_linear_13_61)"></path>
                                    <path
                                        d="M23.8241 -4.65002L-0.289551 37.2627L7.17235 41.5859L31.286 -0.326768L23.8241 -4.65002Z"
                                        fill="url(#paint4_linear_13_61)"></path>
                                    <path
                                        d="M30.5157 -0.772705L6.40186 41.14L14.0942 45.5967L38.208 3.68406L30.5157 -0.772705Z"
                                        fill="url(#paint5_linear_13_61)"></path>
                                    <path
                                        d="M37.2089 3.10443L13.0952 45.0171L20.9361 49.5601L45.0498 7.64728L37.2089 3.10443Z"
                                        fill="url(#paint6_linear_13_61)"></path>
                                    <path
                                        d="M43.8998 6.98199L19.7861 48.8946L26.4782 52.7719L50.5919 10.8593L43.8998 6.98199Z"
                                        fill="url(#paint7_linear_13_61)"></path>
                                </g>
                            </g>
                        </g>
                    </g>
                    <defs>
                        <linearGradient id="paint0_linear_13_61" x1="122.358" y1="6.15218" x2="161.705" y2="39.475"
                            gradientUnits="userSpaceOnUse">
                            <stop offset="0.395833" stop-color="#FEC847"></stop>
                            <stop offset="0.655475" stop-color="#EF7A9D"></stop>
                            <stop offset="1" stop-color="#E05BDD"></stop>
                        </linearGradient>
                        <linearGradient id="paint1_linear_13_61" x1="122.358" y1="6.15218" x2="161.705" y2="39.475"
                            gradientUnits="userSpaceOnUse">
                            <stop offset="0.395833" stop-color="#FEC847"></stop>
                            <stop offset="0.655475" stop-color="#EF7A9D"></stop>
                            <stop offset="1" stop-color="#E05BDD"></stop>
                        </linearGradient>
                        <linearGradient id="paint2_linear_13_61" x1="122.358" y1="6.15221" x2="161.705" y2="39.475"
                            gradientUnits="userSpaceOnUse">
                            <stop offset="0.395833" stop-color="#FEC847"></stop>
                            <stop offset="0.655475" stop-color="#EF7A9D"></stop>
                            <stop offset="1" stop-color="#E05BDD"></stop>
                        </linearGradient>
                        <linearGradient id="paint3_linear_13_61" x1="5.854" y1="10.6193" x2="11.6594" y2="18.2506"
                            gradientUnits="userSpaceOnUse">
                            <stop stop-color="#E272E4"></stop>
                            <stop offset="0.995" stop-color="#E15BD3"></stop>
                        </linearGradient>
                        <linearGradient id="paint4_linear_13_61" x1="20.343" y1="16.6984" x2="8.69592" y2="20.9228"
                            gradientUnits="userSpaceOnUse">
                            <stop stop-color="#F3708B"></stop>
                            <stop offset="0.313" stop-color="#F26F8D"></stop>
                            <stop offset="0.511" stop-color="#F06C96"></stop>
                            <stop offset="0.678" stop-color="#EC69A4"></stop>
                            <stop offset="0.827" stop-color="#E863B9"></stop>
                            <stop offset="0.963" stop-color="#E15CD4"></stop>
                            <stop offset="1" stop-color="#E05ADD"></stop>
                        </linearGradient>
                        <linearGradient id="paint5_linear_13_61" x1="18.2086" y1="16.2824" x2="25.3543" y2="26.9007"
                            gradientUnits="userSpaceOnUse">
                            <stop stop-color="#F47E7C"></stop>
                            <stop offset="1" stop-color="#F76DA1"></stop>
                        </linearGradient>
                        <linearGradient id="paint6_linear_13_61" x1="24.5123" y1="19.3695" x2="32.0499" y2="30.798"
                            gradientUnits="userSpaceOnUse">
                            <stop stop-color="#FFE146"></stop>
                            <stop offset="1" stop-color="#F771A2"></stop>
                        </linearGradient>
                        <linearGradient id="paint7_linear_13_61" x1="31.6803" y1="25.9588" x2="38.3087" y2="33.3087"
                            gradientUnits="userSpaceOnUse">
                            <stop stop-color="#FCC945"></stop>
                            <stop offset="1" stop-color="#F89E85"></stop>
                        </linearGradient>
                        <clipPath id="clip0_13_61">
                            <rect width="171" height="44" fill="white"></rect>
                        </clipPath>
                    </defs>
                </svg>