<svg
                        xmlns="http://www.w3.org/2000/svg" width="28" height="28" viewBox="0 0 28 28" fill="none">
                        <g clip-path="url(#clip0_2_16)">
                            <path
                                d="M22.2305 21.8531C21.1859 19.2992 18.6758 17.5 15.75 17.5H12.25C9.32422 17.5 6.81406 19.2992 5.76953 21.8531C3.82266 19.8078 2.625 17.0461 2.625 14C2.625 7.71641 7.71641 2.625 14 2.625C20.2836 2.625 25.375 7.71641 25.375 14C25.375 17.0461 24.1773 19.8078 22.2305 21.8531ZM20.0375 23.6414C18.2875 24.7406 16.2203 25.375 14 25.375C11.7797 25.375 9.7125 24.7406 7.95703 23.6414C8.35625 21.6344 10.1281 20.125 12.25 20.125H15.75C17.8719 20.125 19.6437 21.6344 20.043 23.6414H20.0375ZM14 28C17.713 28 21.274 26.525 23.8995 23.8995C26.525 21.274 28 17.713 28 14C28 10.287 26.525 6.72601 23.8995 4.10051C21.274 1.475 17.713 0 14 0C10.287 0 6.72601 1.475 4.10051 4.10051C1.475 6.72601 0 10.287 0 14C0 17.713 1.475 21.274 4.10051 23.8995C6.72601 26.525 10.287 28 14 28ZM14 13.125C13.4198 13.125 12.8634 12.8945 12.4532 12.4843C12.043 12.0741 11.8125 11.5177 11.8125 10.9375C11.8125 10.3573 12.043 9.80094 12.4532 9.3907C12.8634 8.98047 13.4198 8.75 14 8.75C14.5802 8.75 15.1366 8.98047 15.5468 9.3907C15.957 9.80094 16.1875 10.3573 16.1875 10.9375C16.1875 11.5177 15.957 12.0741 15.5468 12.4843C15.1366 12.8945 14.5802 13.125 14 13.125ZM9.1875 10.9375C9.1875 12.2139 9.69453 13.4379 10.597 14.3405C11.4996 15.243 12.7236 15.75 14 15.75C15.2764 15.75 16.5004 15.243 17.403 14.3405C18.3055 13.4379 18.8125 12.2139 18.8125 10.9375C18.8125 9.66115 18.3055 8.43707 17.403 7.53455C16.5004 6.63203 15.2764 6.125 14 6.125C12.7236 6.125 11.4996 6.63203 10.597 7.53455C9.69453 8.43707 9.1875 9.66115 9.1875 10.9375Z"
                                fill="#353840"></path>
                        </g>
                        <defs>
                            <clipPath id="clip0_2_16">
                                <rect width="28" height="28" fill="white"></rect>
                            </clipPath>
                        </defs>
                    </svg>