<svg xmlns="http://www.w3.org/2000/svg" width="21" height="20"
                        viewBox="0 0 17 16" fill="none">
                        <g clip-path="url(#clip0_8_14)">
                            <path
                                d="M6 8.8H12.4C13 8.8 13.5 8.5 13.8 8L16.3 3.3C16.5 2.9 16.5 2.5 16.3 2.2C16.1 1.9 15.7 1.7 15.3 1.7H3.5L3.2 0.9C3 0.3 2.5 0 1.9 0H0V1.5H1.8L4.5 7.9C4.5 7.9 4.5 8 4.6 8L3.2 10C3 10.4 3 10.9 3.2 11.3C3.4 11.7 3.8 12 4.3 12H14.3V10.5H4.7L5.9 8.8H6ZM4.2 3.1H14.6L12.4 7.3H6L4.2 3.1Z"
                                fill="#0D0D0D"></path>
                            <path
                                d="M5.0999 15.1C5.76264 15.1 6.2999 14.5628 6.2999 13.9C6.2999 13.2373 5.76264 12.7 5.0999 12.7C4.43716 12.7 3.8999 13.2373 3.8999 13.9C3.8999 14.5628 4.43716 15.1 5.0999 15.1Z"
                                fill="#0D0D0D"></path>
                            <path
                                d="M13.0999 15.1C13.7626 15.1 14.2999 14.5628 14.2999 13.9C14.2999 13.2373 13.7626 12.7 13.0999 12.7C12.4372 12.7 11.8999 13.2373 11.8999 13.9C11.8999 14.5628 12.4372 15.1 13.0999 15.1Z"
                                fill="#0D0D0D"></path>
                        </g>
                        <defs>
                            <clipPath id="clip0_8_14">
                                <rect width="16.3" height="15.1" fill="white"></rect>
                            </clipPath>
                        </defs>
                    </svg>