<svg width="180" height="180" viewBox="0 0 180 180" fill="none" xmlns="http://www.w3.org/2000/svg">
<g clip-path="url(#clip0_600_2259)">
<mask id="mask0_600_2259" style="mask-type:luminance" maskUnits="userSpaceOnUse" x="2" y="14" width="175" height="153">
<path d="M174.447 84.611L137.079 19.889C134.975 16.2449 131.087 14 126.88 14H52.1452C47.9375 14 44.049 16.2449 41.9455 19.889L4.57764 84.611C2.47351 88.2551 2.47351 92.7449 4.57764 96.389L41.9449 161.111C44.049 164.755 47.9369 167 52.1446 167H126.879C131.087 167 134.975 164.755 137.079 161.111L174.446 96.389C176.55 92.7449 176.551 88.2551 174.447 84.611ZM65.814 48.865C70.9963 55.4501 74.088 63.7576 74.088 72.7878C74.088 80.6077 71.7636 87.8818 67.7768 93.9692H39.7412L65.814 48.865ZM151.312 103.947V103.965C151.312 104.338 151.109 104.668 150.761 104.813C148.861 105.627 142.594 108.527 139.981 112.166C133.256 121.53 128.116 136.262 116.632 136.262H68.7108C51.7447 136.262 37.5405 122.793 37.5582 104.856C37.5582 104.407 37.9321 104.04 38.3809 104.04H61.0946C61.8714 104.04 62.5009 104.67 62.5009 105.447V109.831C62.5009 112.162 64.3907 114.051 66.7209 114.051L83.9491 114.046V104.025H72.1753C78.9388 95.4467 82.9774 84.6205 82.9774 72.849C82.9774 59.6984 77.9394 47.7255 69.6901 38.7507C74.6799 39.3284 79.4499 40.3219 83.9491 41.6487V38.8614C83.9491 35.9658 86.2964 33.6191 89.192 33.6191C92.0876 33.6191 94.435 35.9664 94.435 38.8614V45.586C110.524 53.0921 121.048 65.5467 121.048 79.6437C121.048 87.9089 117.429 95.6099 111.192 102.081C109.992 103.326 108.329 104.026 106.6 104.026H94.435V114.045L109.69 114.041C112.985 114.041 118.886 107.805 121.688 104.042C121.688 104.042 121.807 103.855 122.129 103.762C122.451 103.669 150.15 97.3076 150.15 97.3076C150.726 97.1463 151.312 97.5874 151.312 98.1898V103.949L151.312 103.947Z" fill="white"/>
</mask>
<g mask="url(#mask0_600_2259)">
<path d="M70.3265 -34.885L-28.6664 136.576L2.6782 154.672L101.671 -16.7883L70.3265 -34.885Z" fill="url(#paint0_linear_600_2259)"/>
<path d="M97.803 -19.023L-1.18985 152.438L29.4433 170.124L128.436 -1.33695L97.803 -19.023Z" fill="url(#paint1_linear_600_2259)"/>
<path d="M125.273 -3.16119L26.2795 168.3L57.8586 186.532L156.852 15.071L125.273 -3.16119Z" fill="url(#paint2_linear_600_2259)"/>
<path d="M152.75 12.6999L53.7569 184.161L85.946 202.746L184.939 31.2843L152.75 12.6999Z" fill="url(#paint3_linear_600_2259)"/>
<path d="M180.218 28.5625L81.2252 200.023L108.698 215.885L207.691 44.4241L180.218 28.5625Z" fill="url(#paint4_linear_600_2259)"/>
</g>
</g>
<defs>
<linearGradient id="paint0_linear_600_2259" x1="24.0305" y1="43.4424" x2="47.7574" y2="74.7415" gradientUnits="userSpaceOnUse">
<stop stop-color="#E272E4"/>
<stop offset="0.995" stop-color="#E15BD3"/>
</linearGradient>
<linearGradient id="paint1_linear_600_2259" x1="83.5122" y1="68.3116" x2="35.7369" y2="85.7003" gradientUnits="userSpaceOnUse">
<stop stop-color="#F3708B"/>
<stop offset="0.313" stop-color="#F26F8D"/>
<stop offset="0.511" stop-color="#F06C96"/>
<stop offset="0.678" stop-color="#EC69A4"/>
<stop offset="0.827" stop-color="#E863B9"/>
<stop offset="0.963" stop-color="#E15CD4"/>
<stop offset="1" stop-color="#E05ADD"/>
</linearGradient>
<linearGradient id="paint2_linear_600_2259" x1="74.7491" y1="66.6095" x2="103.943" y2="110.143" gradientUnits="userSpaceOnUse">
<stop stop-color="#F47E7C"/>
<stop offset="1" stop-color="#F76DA1"/>
</linearGradient>
<linearGradient id="paint3_linear_600_2259" x1="100.627" y1="79.2387" x2="131.42" y2="126.091" gradientUnits="userSpaceOnUse">
<stop stop-color="#FFC846"/>
<stop offset="1" stop-color="#F771A2"/>
</linearGradient>
<linearGradient id="paint4_linear_600_2259" x1="130.054" y1="106.195" x2="157.16" y2="136.357" gradientUnits="userSpaceOnUse">
<stop stop-color="#FCB145"/>
<stop offset="1" stop-color="#F89E85"/>
</linearGradient>
<clipPath id="clip0_600_2259">
<rect width="173.025" height="153" fill="white" transform="translate(3 14)"/>
</clipPath>
</defs>
</svg>
